<svg width="18" height="18" viewBox="0 0 18 18" fill="currentColor" xmlns="http://www.w3.org/2000/svg">
<path fill-rule="evenodd" clip-rule="evenodd" d="M15.5392 1.01706e-05C16.192 -6.51643e-05 16.8181 0.259238 17.2796 0.72089C18.2406 1.68197 18.2405 3.24013 17.2794 4.2011L8.81166 12.6688C8.74111 12.7395 8.65504 12.7927 8.56031 12.8244L4.70316 14.1101C4.63762 14.1317 4.56903 14.1427 4.50002 14.1429C4.43116 14.1428 4.36272 14.1317 4.29737 14.1099C3.96051 13.9977 3.77839 13.6337 3.8906 13.2968L5.1763 9.4397C5.20798 9.34515 5.26098 9.25912 5.33123 9.18834L13.799 0.721304C14.2593 0.257881 14.886 -0.0018732 15.5392 1.01706e-05ZM14.1428 9.64287C14.1428 9.28782 14.4307 9 14.7857 9C15.1408 9 15.4286 9.28782 15.4286 9.64284V16.0714C15.4286 17.1366 14.5651 18 13.5 18H1.92857C0.863451 18 0 17.1366 0 16.0714V3.21428C0 2.14916 0.863451 1.28571 1.92857 1.28571H9.64287C9.99792 1.28571 10.2857 1.57349 10.2857 1.92854C10.2857 2.2836 9.99792 2.57141 9.64287 2.57141H1.92857C1.57352 2.57141 1.2857 2.85923 1.2857 3.21428V16.0714C1.2857 16.4265 1.57352 16.7143 1.92857 16.7143H13.5C13.855 16.7143 14.1428 16.4265 14.1428 16.0714V9.64287Z" />
</svg>
