<svg width="36" height="24" viewBox="0 0 36 24" fill="none" xmlns="http://www.w3.org/2000/svg">
<path d="M36 21.9427C36 23.0788 35.0473 23.9999 33.872 23.9999H2.12801C0.952734 24 0 23.0788 0 21.9427V2.05717C0 0.92099 0.952734 0 2.12801 0H33.872C35.0473 0 36 0.921058 36 2.05717V21.9427Z" fill="#016FD0"/>
<path d="M8.80957 17.9994V12.8057H13.7842L14.3179 13.5748L14.8693 12.8057H32.926V17.6412C32.926 17.6412 32.4538 17.9942 31.9077 17.9994H21.9093L21.3075 17.1807V17.9994H19.3356V16.6018C19.3356 16.6018 19.0663 16.7969 18.4839 16.7969H17.8127V17.9994H14.8271L14.2942 17.2138L13.753 17.9994H8.80957Z" fill="white"/>
<path d="M3 8.89111L4.1218 6H6.06184L6.69847 7.61948V6H9.11012L9.48911 7.17051L9.85653 6H20.6823V6.58846C20.6823 6.58846 21.2514 6 22.1867 6L25.6993 6.01357L26.3249 7.61185V6H28.3431L28.8986 6.91809V6H30.9353V11.1938H28.8986L28.3663 10.2727V11.1938H25.4011L25.1029 10.375H24.3058L24.0124 11.1938H22.0015C21.1968 11.1938 20.6823 10.6173 20.6823 10.6173V11.1938H17.6504L17.0486 10.375V11.1938H5.77443L5.47645 10.375H4.68185L4.38598 11.1938H3V8.89111Z" fill="white"/>
<path d="M4.51892 6.64014L3.00586 10.5291H3.99094L4.27012 9.75032H5.89312L6.17086 10.5291H7.17764L5.66602 6.64014H4.51892ZM5.07873 7.54521L5.57344 8.90602H4.58257L5.07873 7.54521Z" fill="#016FD0"/>
<path d="M7.28174 10.5276V6.63867L8.6816 6.64442L9.4958 9.15175L10.2905 6.63867H11.6792V10.5276H10.7997V7.66207L9.86741 10.5276H9.0961L8.16123 7.66207V10.5276H7.28174Z" fill="#016FD0"/>
<path d="M12.2812 10.5276V6.63867H15.1512V7.50857H13.17V8.17377H15.1049V8.9925H13.17V9.68329H15.1512V10.5276H12.2812Z" fill="#016FD0"/>
<path d="M15.6592 6.64014V10.5291H16.5387V9.14747H16.909L17.9635 10.5291H19.0383L17.881 9.0963C18.356 9.052 18.8459 8.60139 18.8459 7.9018C18.8459 7.08344 18.2648 6.64014 17.6163 6.64014H15.6592ZM16.5387 7.51003H17.544C17.7852 7.51003 17.9606 7.71857 17.9606 7.91939C17.9606 8.17775 17.7333 8.32875 17.557 8.32875H16.5387V7.51003Z" fill="#016FD0"/>
<path d="M20.1036 10.5276H19.2056V6.63867H20.1036V10.5276Z" fill="#016FD0"/>
<path d="M22.2338 10.5276H22.04C21.1021 10.5276 20.5327 9.7108 20.5327 8.59913C20.5327 7.45999 21.0958 6.63867 22.2801 6.63867H23.2522V7.55973H22.2446C21.7638 7.55973 21.4238 7.9745 21.4238 8.60872C21.4238 9.36186 21.8126 9.67818 22.3727 9.67818H22.6041L22.2338 10.5276Z" fill="#016FD0"/>
<path d="M24.1478 6.64014L22.6348 10.5291H23.6198L23.899 9.75032H25.522L25.7998 10.5291H26.8065L25.2949 6.64014H24.1478ZM24.7076 7.54521L25.2023 8.90602H24.2115L24.7076 7.54521Z" fill="#016FD0"/>
<path d="M26.9092 10.5276V6.63867H28.0273L29.4551 9.08205V6.63867H30.3346V10.5276H29.2526L27.7887 8.02027V10.5276H26.9092Z" fill="#016FD0"/>
<path d="M9.41016 17.3347V13.4458H12.2801V14.3157H10.2989V14.9809H12.2338V15.7996H10.2989V16.4904H12.2801V17.3347H9.41016Z" fill="#016FD0"/>
<path d="M23.4741 17.3345V13.4456H26.344V14.3155H24.3629V14.9807H26.2885V15.7994H24.3629V16.4902H26.344V17.3345H23.4741Z" fill="#016FD0"/>
<path d="M12.3922 17.3345L13.7895 15.414L12.3589 13.4456H13.4669L14.3189 14.6624L15.1738 13.4456H16.2385L14.8267 15.39L16.2266 17.3345H15.1187L14.2914 16.1368L13.4843 17.3345H12.3922Z" fill="#016FD0"/>
<path d="M16.3301 13.4473V17.3362H17.2327V16.1081H18.1585C18.9418 16.1081 19.5356 15.6487 19.5356 14.7553C19.5356 14.0152 19.0699 13.4473 18.2728 13.4473H16.3301ZM17.2327 14.3268H18.2077C18.4607 14.3268 18.6416 14.4982 18.6416 14.7745C18.6416 15.034 18.4616 15.2222 18.2048 15.2222H17.2327V14.3268Z" fill="#016FD0"/>
<path d="M19.9189 13.4458V17.3347H20.7984V15.9531H21.1687L22.2233 17.3347H23.298L22.1408 15.902C22.6157 15.8577 23.1056 15.4071 23.1056 14.7075C23.1056 13.8891 22.5246 13.4458 21.8761 13.4458H19.9189ZM20.7984 14.3157H21.8038C22.0449 14.3157 22.2204 14.5242 22.2204 14.7251C22.2204 14.9834 21.9931 15.1344 21.8168 15.1344H20.7984V14.3157Z" fill="#016FD0"/>
<path d="M26.7513 17.3345V16.4902H28.5115C28.7719 16.4902 28.8847 16.3346 28.8847 16.164C28.8847 16.0005 28.7722 15.8352 28.5115 15.8352H27.7161C27.0247 15.8352 26.6396 15.3696 26.6396 14.6704C26.6396 14.0469 26.9923 13.4456 28.0196 13.4456H29.7323L29.362 14.3206H27.8808C27.5976 14.3206 27.5105 14.4848 27.5105 14.6417C27.5105 14.8029 27.6182 14.9807 27.8345 14.9807H28.6677C29.4384 14.9807 29.7728 15.4639 29.7728 16.0968C29.7728 16.7772 29.4002 17.3345 28.6257 17.3345H26.7513Z" fill="#016FD0"/>
<path d="M29.9798 17.3347V16.4904H31.74C32.0004 16.4904 32.1132 16.3348 32.1132 16.1642C32.1132 16.0007 32.0008 15.8354 31.74 15.8354H30.9446C30.2532 15.8354 29.8682 15.3698 29.8682 14.6707C29.8682 14.0471 30.2208 13.4458 31.2481 13.4458H32.9608L32.5905 14.3208H31.1093C30.8261 14.3208 30.739 14.4851 30.739 14.6419C30.739 14.8031 30.8467 14.9809 31.063 14.9809H31.8962C32.6669 14.9809 33.0013 15.4642 33.0013 16.0971C33.0013 16.7774 32.6287 17.3347 31.8542 17.3347H29.9798Z" fill="#016FD0"/>
</svg>
