<svg width="92" height="122" viewBox="0 0 92 122" fill="currentColor" xmlns="http://www.w3.org/2000/svg">
<path d="M0.692274 1.63067C0.564605 2.47418 1.13967 3.25676 1.97477 3.37237C2.38245 3.42895 43.0534 9.51541 66.4597 41.4413C80.342 60.377 85.4532 84.5527 81.7227 113.325L79.2081 108.122C78.8386 107.362 77.9259 107.051 77.1616 107.432C76.4001 107.811 76.081 108.739 76.4497 109.501L82.1704 121.336L91.3078 111.51C91.89 110.886 91.864 109.91 91.25 109.332C91.1636 109.249 91.0694 109.181 90.969 109.123C90.3692 108.777 89.5847 108.881 89.0851 109.417L84.695 114.138C88.6444 84.3551 83.3677 59.2793 68.9306 39.587C60.5823 28.2 50.1137 20.0033 39.9667 14.1449C20.7611 3.05654 2.71211 0.356277 2.43698 0.317217C1.60343 0.198925 0.822039 0.786592 0.692274 1.63067Z" />
</svg>
