<svg width="20" height="20" viewBox="0 0 20 20" fill="none" xmlns="http://www.w3.org/2000/svg">
<path d="M-4.37639e-07 9.98799C-2.33944e-07 14.648 3.34525 18.8054 7.90054 19.7802C10.1767 20.2672 12.597 19.9392 14.6565 18.8526C16.6386 17.8069 18.2405 16.0925 19.1484 14.0413C20.0929 11.9078 20.2575 9.45836 19.6134 7.21587C18.9922 5.05246 17.6288 3.13422 15.7985 1.82827C11.9722 -0.90227 6.5975 -0.537194 3.16893 2.67526C1.15959 4.55804 -5.58098e-07 7.2322 -4.37639e-07 9.98799ZM10.5352 5.18436L13.3272 7.91413C14.0343 8.60525 12.9631 9.69767 12.2594 9.00936L10.8506 7.63197L10.8506 14.1594C10.8506 14.623 10.4641 15.0098 10.0014 15.0098C9.53865 15.0098 9.15212 14.6227 9.15212 14.1594L9.15212 7.66462L7.74945 9.06931C7.05232 9.76731 5.97121 8.6851 6.66834 7.98709L9.46093 5.19073C9.75675 4.89429 10.2358 4.89148 10.5352 5.18436Z" fill="white"/>
</svg>
