<svg width="12" height="11" viewBox="0 0 12 11" fill="none" xmlns="http://www.w3.org/2000/svg">
<path d="M0.721265 4.59972C0.770366 4.5912 0.820057 4.58727 0.869775 4.58796H9.33554L9.15094 4.49619C8.9705 4.40491 8.80635 4.28067 8.66583 4.1291L6.29182 1.5916C5.97916 1.27258 5.92662 0.759369 6.16732 0.375617C6.44747 -0.0333139 6.98471 -0.122103 7.36732 0.177332C7.39823 0.201537 7.42761 0.227921 7.45522 0.256314L11.7482 4.84493C12.0837 5.20312 12.084 5.78418 11.7489 6.14279C11.7486 6.14301 11.7484 6.14327 11.7482 6.1435L7.45522 10.7321C7.11945 11.09 6.57583 11.0892 6.24098 10.7303C6.21463 10.7021 6.19002 10.672 6.16732 10.6403C5.92662 10.2566 5.97916 9.74338 6.29182 9.42436L8.66154 6.88227C8.78751 6.74748 8.93235 6.63446 9.09084 6.5473L9.34841 6.42341H0.917025C0.478417 6.44082 0.093606 6.11333 0.0112076 5.65252C-0.0646973 5.15222 0.253198 4.68088 0.721265 4.59972Z" fill="currentColor"/>
</svg>
