<svg width="12" height="11" viewBox="0 0 12 11" fill="currentColor" xmlns="http://www.w3.org/2000/svg">
<path d="M11.2785 4.59972C11.2294 4.5912 11.1797 4.58727 11.13 4.58796H2.66422L2.84882 4.49619C3.02926 4.40491 3.19341 4.28067 3.33392 4.1291L5.70794 1.5916C6.0206 1.27258 6.07313 0.759369 5.83243 0.375617C5.55229 -0.0333139 5.01505 -0.122103 4.63244 0.177332C4.60153 0.201537 4.57215 0.227921 4.54454 0.256314L0.251572 4.84493C-0.0839233 5.20312 -0.0842185 5.78418 0.250901 6.14279C0.251116 6.14301 0.251357 6.14327 0.251572 6.1435L4.54454 10.7321C4.8803 11.09 5.42393 11.0892 5.75878 10.7303C5.78513 10.7021 5.80973 10.672 5.83243 10.6403C6.07313 10.2566 6.0206 9.74338 5.70794 9.42436L3.33822 6.88227C3.21224 6.74748 3.06741 6.63446 2.90892 6.5473L2.65134 6.42341H11.0827C11.5213 6.44082 11.9061 6.11333 11.9885 5.65252C12.0645 5.15222 11.7466 4.68088 11.2785 4.59972Z"/>
</svg>
