<svg width="12" height="11" viewBox="0 0 12 11" fill="none" xmlns="http://www.w3.org/2000/svg">
<path d="M11.2787 4.59972C11.2296 4.5912 11.1799 4.58727 11.1302 4.58796H2.66446L2.84906 4.49619C3.0295 4.40491 3.19365 4.28067 3.33417 4.1291L5.70818 1.5916C6.02084 1.27258 6.07338 0.759369 5.83268 0.375617C5.55253 -0.0333139 5.01529 -0.122103 4.63268 0.177332C4.60177 0.201537 4.57239 0.227921 4.54478 0.256314L0.251816 4.84493C-0.0836792 5.20312 -0.0839744 5.78418 0.251145 6.14279C0.25136 6.14301 0.251602 6.14327 0.251816 6.1435L4.54478 10.7321C4.88055 11.09 5.42417 11.0892 5.75902 10.7303C5.78537 10.7021 5.80998 10.672 5.83268 10.6403C6.07338 10.2566 6.02084 9.74338 5.70818 9.42436L3.33846 6.88227C3.21249 6.74748 3.06765 6.63446 2.90916 6.5473L2.65159 6.42341H11.083C11.5216 6.44082 11.9064 6.11333 11.9888 5.65252C12.0647 5.15222 11.7468 4.68088 11.2787 4.59972Z" fill="currentColor"/>
</svg>
