<svg width="16" height="18" viewBox="0 0 16 18" fill="currentColor" xmlns="http://www.w3.org/2000/svg">
<path d="M9.12013 0.44906C10.3004 -0.547323 12.2353 0.201916 12.2353 1.83471V16.1553C12.2353 17.541 10.5423 18.6645 9.12013 17.541L3.88424 13.1207H1.88235C0.90678 13.1207 0 12.3648 0 11.2871V6.703C0 5.72101 0.85168 4.86938 1.88235 4.86938H3.88376L9.12013 0.44906ZM15.1685 5.66221C15.7092 6.52031 16 7.50876 16 8.53662C16 9.81017 15.5532 11.0195 14.7485 11.9903C14.4219 12.3843 13.8293 12.4458 13.4249 12.1277C13.0205 11.8096 12.9574 11.2323 13.2839 10.8384C13.8207 10.1909 14.1176 9.38712 14.1176 8.53662C14.1176 7.84984 13.9244 7.19299 13.5643 6.62148C13.2923 6.18995 13.431 5.6254 13.874 5.3605C14.317 5.09561 14.8966 5.23069 15.1685 5.66221Z" fill="currentColor" />
</svg>
