<svg width="18" height="14" viewBox="0 0 18 14" fill="currentColor" xmlns="http://www.w3.org/2000/svg">
<path fill-rule="evenodd" clip-rule="evenodd" d="M15.8888 0.655753V10.4887C15.8888 10.8492 15.5995 11.1433 15.244 11.1442C13.7447 11.1479 11.2328 11.466 9.49997 13.3121V3.02178C9.49997 2.89955 9.53058 2.78473 9.58845 2.68971C11.0108 0.357925 13.7438 0.00364033 15.2464 0H15.248C15.4181 0 15.5783 0.067562 15.6992 0.190346C15.8215 0.314488 15.8888 0.479783 15.8888 0.655753ZM2.75185 0.00012207H2.75336C4.25603 0.0037007 6.98911 0.357985 8.41135 2.68977C8.46923 2.78479 8.4999 2.89962 8.4999 3.02184V13.3123C6.76705 11.4661 4.25518 11.148 2.75591 11.1444C2.40027 11.1434 2.111 10.8494 2.111 10.4888V0.655875C2.111 0.479905 2.17833 0.31461 2.30057 0.190468C2.42148 0.0676841 2.5816 0.00012207 2.75185 0.00012207ZM17.3559 2.2666H16.8889V10.4876C16.8889 11.4083 16.1521 12.159 15.2464 12.1613C13.9747 12.1644 11.8778 12.4175 10.3928 13.8484C12.9612 13.2082 15.6687 13.6244 17.2117 13.9824C17.4044 14.027 17.6035 13.9809 17.7578 13.8556C17.9117 13.7307 17.9999 13.5439 17.9999 13.3435V2.92223C18 2.56073 17.711 2.2666 17.3559 2.2666ZM1.11103 2.2666V10.4876C1.11103 11.4083 1.84787 12.159 2.75351 12.1612C4.0252 12.1643 6.12204 12.4174 7.60701 13.8482C5.03877 13.208 2.33121 13.6241 0.78818 13.9822C0.595211 14.027 0.396302 13.9806 0.24206 13.8554C0.0882422 13.7305 0 13.5438 0 13.3433V2.92223C0 2.56073 0.288969 2.2666 0.643998 2.2666H1.11103Z"/>
</svg>
