<svg width="18" height="16" viewBox="0 0 18 16" fill="currentColor" xmlns="http://www.w3.org/2000/svg">
<path fill-rule="evenodd" clip-rule="evenodd" d="M12.3278 2.97543H16.2045C17.1921 2.97543 17.9955 3.79668 17.9955 4.80609C17.9955 4.90511 17.9966 5.00326 17.9978 5.10076C18.007 5.89372 18.0157 6.64412 17.4076 7.47245C17.023 7.99637 16.4944 8.37008 15.8791 8.55321L9.9041 10.3314C9.31246 10.5074 8.68709 10.5074 8.09556 10.3314L2.12054 8.55321C1.50523 8.37012 0.976693 7.99637 0.592079 7.47245C-0.0147685 6.64579 -0.00667151 5.90088 0.0020529 5.09826C0.00310155 5.00178 0.00415926 4.90448 0.00415926 4.80609C0.00415926 3.79668 0.80763 2.97543 1.7952 2.97543H5.67191V1.37874C5.67191 0.61848 6.27704 0 7.02084 0H10.9789C11.7227 0 12.3278 0.61848 12.3278 1.37874V2.97543ZM7.02084 1.16784C6.90705 1.16784 6.81447 1.26243 6.81447 1.37874V2.97543H11.1853V1.37874C11.1853 1.26247 11.0927 1.16784 10.9789 1.16784H7.02084ZM13.0237 10.624C13.8554 10.3744 14.893 10.063 16.1985 9.67447C16.8906 9.46849 17.5036 9.08876 17.9955 8.56535V14.1694C17.9955 15.1788 17.1921 16 16.2045 16H1.79519C0.807587 16 0.00415208 15.1788 0.00415208 14.1694V8.56535C0.496025 9.08879 1.10901 9.46849 1.80115 9.6745C3.11335 10.065 4.15537 10.3776 4.98943 10.6278C8.32795 11.6292 8.33465 11.6312 8.99982 11.6312C9.66756 11.6312 9.74976 11.6065 13.0237 10.624Z"/>
</svg>
