<svg width="20" height="20" viewBox="0 0 20 20" fill="none" xmlns="http://www.w3.org/2000/svg">
<rect width="20" height="20" fill="currentColor" fill-opacity="0.01"/>
<path d="M1 14.6617C1 15.9511 1.99675 17.0002 3.22187 17.0002H16.7781C18.0033 17.0002 19 15.9511 19 14.6617V7.35056H1V14.6617ZM3.78673 11.1342H7.17579C7.46703 11.1342 7.70314 11.3827 7.70314 11.6892C7.70314 11.9957 7.46703 12.2442 7.17579 12.2442H3.78673C3.4955 12.2442 3.25939 11.9957 3.25939 11.6892C3.25939 11.3827 3.49546 11.1342 3.78673 11.1342ZM3.78673 13.5121H5.48126C5.7725 13.5121 6.00861 13.7606 6.00861 14.0672C6.00861 14.3737 5.7725 14.6222 5.48126 14.6222H3.78673C3.4955 14.6222 3.25939 14.3737 3.25939 14.0672C3.25939 13.7606 3.49546 13.5121 3.78673 13.5121Z" fill="currentColor"/>
<path d="M16.7781 4H3.22187C1.99671 4 1 5.04908 1 6.33852V6.37796H19V6.33852C19 5.04908 18.0033 4 16.7781 4Z" fill="currentColor"/>
</svg>
