<svg width="18" height="18" viewBox="0 0 18 18" fill="currentColor" xmlns="http://www.w3.org/2000/svg">
<path fill-rule="evenodd" clip-rule="evenodd" d="M16.6312 9.28205L17.8728 10.7307C18.1651 11.0711 17.9231 11.6016 17.4727 11.6015H15.8855C15.8301 7.61982 12.036 4.39434 7.41802 4.39434C6.33297 4.39434 5.26339 4.57857 4.30965 4.90264C4.82242 2.13013 7.72642 0 11.1446 0C14.9245 0 18 2.60222 18 5.80077C18 7.06244 17.5175 8.28197 16.6312 9.28205ZM3.70245e-05 11.6896C3.70245e-05 8.2485 3.34705 5.44906 7.41799 5.44906C11.4889 5.44906 14.8359 8.2485 14.8359 11.6896C14.8359 15.4117 10.9511 18 7.94534 18H0.527392C0.320388 18 0.13293 17.879 0.0474287 17.6905C-0.0386005 17.502 -0.00562325 17.2811 0.130329 17.1255L1.51203 15.5466C0.53358 14.4631 3.70245e-05 13.0652 3.70245e-05 11.6896ZM3.1641 11.6016C3.1641 12.183 3.63735 12.6562 4.21877 12.6562C4.8002 12.6562 5.27348 12.183 5.27345 11.6016C5.27345 11.0202 4.80016 10.5469 4.21877 10.5469C3.63738 10.5469 3.1641 11.0201 3.1641 11.6016ZM6.36331 11.6016C6.36331 12.183 6.83656 12.6562 7.41799 12.6562C7.99941 12.6562 8.47266 12.183 8.47266 11.6016C8.47266 11.0202 7.99938 10.5469 7.41799 10.5469C6.8366 10.5469 6.36331 11.0201 6.36331 11.6016ZM9.56253 11.6016C9.56253 12.183 10.0358 12.6562 10.6172 12.6562C11.1986 12.6562 11.6719 12.183 11.6719 11.6016C11.6719 11.0202 11.1986 10.5469 10.6172 10.5469C10.0358 10.5469 9.56253 11.0201 9.56253 11.6016Z"/>
</svg>
