<svg width="18" height="18" viewBox="0 0 18 18" fill="currentColor" xmlns="http://www.w3.org/2000/svg">
<path d="M9 0C7.21997 0 5.47991 0.527841 3.99987 1.51677C2.51983 2.50571 1.36628 3.91131 0.685088 5.55585C0.00389959 7.20038 -0.17433 9.00998 0.172936 10.7558C0.520203 12.5016 1.37737 14.1053 2.63604 15.364C3.89472 16.6226 5.49836 17.4798 7.24419 17.8271C8.99002 18.1743 10.7996 17.9961 12.4442 17.3149C14.0887 16.6337 15.4943 15.4802 16.4832 14.0001C17.4722 12.5201 18 10.78 18 9C17.9972 6.61391 17.0481 4.32636 15.3609 2.63915C13.6736 0.95193 11.3861 0.00281493 9 0ZM12.033 12.033C11.8796 12.1864 11.6715 12.2726 11.4545 12.2726C11.2376 12.2726 11.0295 12.1864 10.8761 12.033L8.42155 9.57845C8.2681 9.42505 8.18187 9.21698 8.18182 9V4.09091C8.18182 3.87391 8.26802 3.66581 8.42146 3.51237C8.5749 3.35893 8.78301 3.27273 9 3.27273C9.217 3.27273 9.42511 3.35893 9.57854 3.51237C9.73198 3.66581 9.81818 3.87391 9.81818 4.09091V8.66127L12.033 10.8761C12.1864 11.0295 12.2726 11.2376 12.2726 11.4545C12.2726 11.6715 12.1864 11.8796 12.033 12.033Z"/>
</svg>
