<svg width="14" height="14" viewBox="0 0 14 14" fill="none" xmlns="http://www.w3.org/2000/svg">
<path d="M8.28278 7.0001L13.7342 1.54851C14.089 1.1939 14.089 0.620557 13.7342 0.265953C13.3796 -0.0886509 12.8063 -0.0886509 12.4517 0.265953L7.00006 5.71755L1.54863 0.265953C1.19386 -0.0886509 0.620681 -0.0886509 0.266077 0.265953C-0.0886925 0.620557 -0.0886925 1.1939 0.266077 1.54851L5.71751 7.0001L0.266077 12.4517C-0.0886925 12.8063 -0.0886925 13.3797 0.266077 13.7343C0.442798 13.9111 0.675159 14 0.907354 14C1.13955 14 1.37174 13.9111 1.54863 13.7343L7.00006 8.28266L12.4517 13.7343C12.6285 13.9111 12.8607 14 13.0929 14C13.3251 14 13.5573 13.9111 13.7342 13.7343C14.089 13.3797 14.089 12.8063 13.7342 12.4517L8.28278 7.0001Z" fill="#889EA6"/>
</svg>
