<svg width="20" height="15" viewBox="0 0 20 15" fill="currentColor" xmlns="http://www.w3.org/2000/svg">
<path fill-rule="evenodd" clip-rule="evenodd" d="M5.83332 2.5C5.83332 3.88071 4.71403 5 3.33332 5C1.95261 5 0.833323 3.88071 0.833323 2.5C0.833323 1.11929 1.95261 0 3.33332 0C4.71403 0 5.83332 1.11929 5.83332 2.5ZM4.06485 8.84109C4.54449 7.97658 5.23625 7.24835 6.075 6.72496C5.84095 6.44643 5.54893 6.22234 5.21933 6.06833C4.88972 5.91433 4.53048 5.83411 4.16667 5.83329H2.5C1.83757 5.83527 1.20283 6.0993 0.734419 6.56771C0.266006 7.03612 0.00197841 7.67086 0 8.33329V9.99996C0.00131894 10.4416 0.177337 10.8647 0.489612 11.177C0.801888 11.4893 1.22504 11.6653 1.66667 11.6666H3.33333C3.33347 10.678 3.58521 9.70561 4.06485 8.84109ZM16.6667 5C18.0474 5 19.1667 3.88071 19.1667 2.5C19.1667 1.11929 18.0474 0 16.6667 0C15.286 0 14.1667 1.11929 14.1667 2.5C14.1667 3.88071 15.286 5 16.6667 5ZM20 9.99996V8.33329C19.998 7.67086 19.734 7.03612 19.2656 6.56771C18.7972 6.0993 18.1624 5.83527 17.5 5.83329H15.8333C15.4695 5.83411 15.1103 5.91433 14.7807 6.06833C14.4511 6.22234 14.1591 6.44643 13.925 6.72496C14.7638 7.24835 15.4555 7.97658 15.9352 8.84109C16.4148 9.70561 16.6665 10.678 16.6667 11.6666H18.3333C18.775 11.6653 19.1981 11.4893 19.5104 11.177C19.8227 10.8647 19.9987 10.4416 20 9.99996ZM10 6.66667C11.841 6.66667 13.3333 5.17428 13.3333 3.33333C13.3333 1.49238 11.841 0 10 0C8.15906 0 6.66668 1.49238 6.66668 3.33333C6.66668 5.17428 8.15906 6.66667 10 6.66667ZM15 12.5V11.6667C15 10.5616 14.561 9.50179 13.7796 8.72039C12.9982 7.93899 11.9384 7.5 10.8333 7.5H9.16667C8.0616 7.5 7.00179 7.93899 6.22039 8.72039C5.43899 9.50179 5 10.5616 5 11.6667V12.5C5.00198 13.1624 5.26601 13.7972 5.73442 14.2656C6.20283 14.734 6.83757 14.998 7.5 15H12.5C13.1624 14.998 13.7972 14.734 14.2656 14.2656C14.734 13.7972 14.998 13.1624 15 12.5Z"/>
</svg>
