<svg width="18" height="16" viewBox="0 0 18 16" fill="currentColor" xmlns="http://www.w3.org/2000/svg">
<path fill-rule="evenodd" clip-rule="evenodd" d="M9.12744 0.0154891L17.6001 2.10245C17.8351 2.16033 18 2.36916 18 2.6087V5.73913C18 6.02731 17.7639 6.26087 17.4727 6.26087C17.1814 6.26087 16.9453 6.02731 16.9453 5.73913V3.27622L9.12744 5.20204C9.08556 5.21223 9.04285 5.21739 9 5.21739C8.95715 5.21739 8.91444 5.21223 8.87256 5.20204L0.399902 3.11508C0.164932 3.0572 0 2.84837 0 2.6087C0 2.36916 0.164932 2.16033 0.399902 2.10245L8.87256 0.0154891C8.95633 -0.00516304 9.04367 -0.00516304 9.12744 0.0154891ZM9 6.26087C9.12881 6.26087 9.25735 6.24524 9.38219 6.21454L15.3281 4.75V9.73913H2.67188V4.75L8.61768 6.21454C8.74265 6.24524 8.87119 6.26087 9 6.26087ZM18 11.3043C18 11.0162 17.7639 10.7826 17.4727 10.7826H2.63672C1.18282 10.7826 0 11.9529 0 13.3913C0 14.8298 1.18282 16 2.63672 16H17.4727C17.7639 16 18 15.7664 18 15.4783C18 15.1901 17.7639 14.9565 17.4727 14.9565H2.63672C1.7644 14.9565 1.05469 14.2543 1.05469 13.3913C1.05469 12.5283 1.7644 11.8261 2.63672 11.8261H17.4727C17.7639 11.8261 18 11.5925 18 11.3043ZM2.63672 13.913C2.34599 13.913 2.10938 13.6791 2.10938 13.3913C2.10938 13.1037 2.34599 12.8696 2.63672 12.8696H16.9453V13.913H2.63672Z"/>
</svg>
