<svg width="17" height="17" viewBox="0 0 17 17" fill="currentColor" xmlns="http://www.w3.org/2000/svg">
<path d="M15.8681 4.49857L9.69188 0.375443C9.31937 0.130516 8.88331 0 8.4375 0C7.99169 0 7.55563 0.130516 7.18313 0.375443L1.00688 4.49857C0.696998 4.70427 0.442872 4.9835 0.26718 5.31133C0.0914885 5.63915 -0.000302392 6.00538 7.48407e-07 6.37732V14.1623C0.000893442 14.7603 0.238826 15.3335 0.661644 15.7563C1.08446 16.1791 1.65767 16.417 2.25563 16.4179H14.6194C15.2173 16.417 15.7905 16.1791 16.2134 15.7563C16.6362 15.3335 16.8741 14.7603 16.875 14.1623V6.37732C16.8753 6.00538 16.7835 5.63915 16.6078 5.31133C16.4321 4.9835 16.178 4.70427 15.8681 4.49857ZM10.9688 14.1679H5.90625C5.68247 14.1679 5.46786 14.079 5.30963 13.9208C5.1514 13.7626 5.0625 13.548 5.0625 13.3242C5.0625 13.1004 5.1514 12.8858 5.30963 12.7276C5.46786 12.5693 5.68247 12.4804 5.90625 12.4804H10.9688C11.1925 12.4804 11.4071 12.5693 11.5654 12.7276C11.7236 12.8858 11.8125 13.1004 11.8125 13.3242C11.8125 13.548 11.7236 13.7626 11.5654 13.9208C11.4071 14.079 11.1925 14.1679 10.9688 14.1679Z"/>
</svg>
