<svg width="37" height="32" viewBox="0 0 37 32" fill="currentColor" xmlns="http://www.w3.org/2000/svg">
<path d="M36.094 0.904053C35.4902 0.301553 34.7647 0 33.9165 0H3.08333C2.23543 0 1.50977 0.301553 0.905606 0.904053C0.301779 1.50676 0 2.23083 0 3.07703V24C0 24.8464 0.301779 25.5705 0.905606 26.1733C1.50977 26.7758 2.23543 27.0768 3.08333 27.0768H13.5668C13.5668 27.5639 13.464 28.0643 13.2584 28.5768C13.0529 29.0896 12.8473 29.5381 12.6417 29.9226C12.4364 30.3075 12.3336 30.5892 12.3336 30.7686C12.3336 31.1019 12.4555 31.391 12.6997 31.6339C12.9437 31.8778 13.2328 32 13.5668 32H23.4335C23.7675 32 24.0567 31.8779 24.3007 31.6339C24.545 31.391 24.667 31.1019 24.667 30.7686C24.667 30.6024 24.564 30.3233 24.3584 29.9324C24.1528 29.5416 23.9472 29.086 23.7419 28.5673C23.5363 28.0479 23.4335 27.5512 23.4335 27.0768H33.917C34.7648 27.0768 35.4903 26.7758 36.0941 26.1733C36.6981 25.5705 37 24.8465 37 24V3.07703C37.0002 2.23083 36.698 1.50676 36.094 0.904053ZM34.5333 19.0769C34.5333 19.2436 34.4723 19.3876 34.3503 19.5096C34.2281 19.6311 34.0835 19.692 33.9165 19.692H3.08333C2.91641 19.692 2.77183 19.6311 2.64979 19.5096C2.52783 19.3872 2.46674 19.2436 2.46674 19.0769V3.07703C2.46674 2.91032 2.52763 2.76618 2.64979 2.6444C2.7719 2.52282 2.91648 2.46173 3.08333 2.46173H33.9169C34.0837 2.46173 34.2286 2.52262 34.3503 2.6444C34.4723 2.76625 34.5333 2.91039 34.5333 3.07703V19.0769Z" />
</svg>
