<svg width="14" height="18" viewBox="0 0 14 18" fill="currentColor" xmlns="http://www.w3.org/2000/svg">
<path d="M13.4167 6.75H8.85026C7.82979 6.75 7 5.94984 7 4.96582V0.5625C7 0.36 7.05542 0.167344 7.15568 0H1.26693C0.568385 0 0 0.548086 0 1.22168V16.7783C0 17.4519 0.568385 18 1.26693 18H12.7331C13.4316 18 14 17.4519 14 16.7783V6.59988C13.8265 6.69656 13.6267 6.75 13.4167 6.75V6.75ZM4.83766 10.2899C5.06552 10.0702 5.43448 10.0702 5.66234 10.2899L6.41667 11.0169V7.59375C6.41667 7.28297 6.67771 7.03125 7 7.03125C7.32229 7.03125 7.58333 7.28297 7.58333 7.59375V11.0169L8.33766 10.2899C8.56516 10.0702 8.93484 10.0702 9.16234 10.2899C9.39021 10.5093 9.39021 10.8657 9.16234 11.0851L7.41234 12.7726C7.28937 12.8943 7.11226 12.9492 6.94385 12.935C6.65175 12.8974 6.74388 12.9233 4.83766 11.0851C4.60979 10.8657 4.60979 10.5093 4.83766 10.2899ZM9.91667 15.1875H4.08333C3.76104 15.1875 3.5 14.9358 3.5 14.625C3.5 14.3142 3.76104 14.0625 4.08333 14.0625H9.91667C10.239 14.0625 10.5 14.3142 10.5 14.625C10.5 14.9358 10.239 15.1875 9.91667 15.1875ZM8.85026 5.625H13.4167L8.16667 0.5625V4.96582C8.16667 5.32934 8.47328 5.625 8.85026 5.625Z"/>
</svg>
