<svg width="16" height="20" viewBox="0 0 16 20" fill="currentColor" xmlns="http://www.w3.org/2000/svg">
<path fill-rule="evenodd" clip-rule="evenodd" d="M15.5907 0H2.10793C1.05498 0.00273499 0.165595 0.774206 0.0245361 1.80712C0.100924 2.13745 0.274728 2.43784 0.523897 2.67016C0.762321 2.8719 1.04137 3.02105 1.34252 3.10776C1.81579 3.24867 2.31059 3.30488 2.80376 3.27389H15.1118C14.4494 3.01508 14.1244 2.27379 14.3859 1.6181C14.5809 1.12879 15.0593 0.808089 15.5907 0.810368C15.8167 0.810368 16 0.628947 16 0.405184C16 0.181421 15.8167 0 15.5907 0ZM9.07855 10.1134C8.82048 9.84222 8.45584 9.69575 8.07983 9.71226C7.71565 9.69995 7.36476 9.8484 7.12204 10.1174C6.89022 10.3884 6.7399 10.7183 6.68817 11.0696H9.48786C9.45057 10.7177 9.30802 10.3847 9.07855 10.1134ZM2.51727 3.88971C2.62251 3.8896 2.72771 3.88419 2.83244 3.8735H15.9754V18.5857C15.9732 19.3658 15.335 19.9976 14.5469 19.9998H1.44896L1.43658 19.9999C0.645382 20.0021 0.00220005 19.369 0 18.5857V2.98615C0.0368381 3.02666 0.0777692 3.07123 0.1187 3.1077C0.800153 3.63996 1.64963 3.91695 2.51727 3.88971ZM8.22717 14.2827C7.64871 14.2936 7.11788 13.9666 6.87235 13.448C6.75933 13.2261 6.68723 12.9859 6.6595 12.7389H10.1182C10.5683 12.7596 11.0171 12.675 11.428 12.4918C11.8511 12.2392 12.0802 11.7603 12.0092 11.2762C12.0042 10.6951 11.8538 10.1243 11.5712 9.61496C11.2646 9.05737 10.8067 8.59567 10.2492 8.2819C9.61238 7.92894 8.89122 7.75253 8.16168 7.77137C7.5845 7.76458 7.0111 7.86492 6.47122 8.06715C5.97416 8.25476 5.52643 8.5512 5.16142 8.93425C4.79606 9.32069 4.51711 9.77906 4.3428 10.2795C4.15938 10.8157 4.06805 11.3786 4.07265 11.9448C4.01688 13.067 4.41791 14.1645 5.18598 14.9918C6.01448 15.7804 7.13681 16.1928 8.28447 16.1303C8.80379 16.1374 9.32085 16.0608 9.8153 15.9034C10.2203 15.7751 10.6007 15.5806 10.9409 15.3281C11.2175 15.124 11.4523 14.8696 11.6326 14.5785C11.7807 14.3533 11.8655 14.0932 11.8782 13.8248C11.8886 13.5684 11.7837 13.3206 11.5917 13.1482C11.403 12.9883 11.1605 12.9044 10.9123 12.9132C10.6836 12.9028 10.4591 12.9764 10.2819 13.1198C10.0445 13.3386 9.85214 13.5128 9.70478 13.6425C9.56112 13.7724 9.40788 13.8916 9.24636 13.9991C9.1011 14.0934 8.94244 14.1657 8.77565 14.2138C8.59688 14.2616 8.41233 14.2848 8.22717 14.2827Z"/>
</svg>
