<svg width="9" height="17" viewBox="0 0 9 17" fill="currentColor" xmlns="http://www.w3.org/2000/svg">
<path d="M2.5058 9.59574C2.44316 9.59574 1.06497 9.59574 0.438515 9.59574C0.104408 9.59574 0 9.46808 0 9.14894C0 8.29787 0 7.42553 0 6.57447C0 6.23404 0.12529 6.12766 0.438515 6.12766H2.5058C2.5058 6.06383 2.5058 4.82979 2.5058 4.25532C2.5058 3.40426 2.65197 2.59574 3.06961 1.85106C3.50812 1.08511 4.13457 0.574468 4.92807 0.276596C5.45012 0.0851062 5.97216 0 6.53596 0H8.58237C8.87471 0 9 0.12766 9 0.425532V2.85106C9 3.14894 8.87471 3.2766 8.58237 3.2766C8.01856 3.2766 7.45476 3.2766 6.89095 3.29787C6.32715 3.29787 6.0348 3.57447 6.0348 4.17021C6.01392 4.80851 6.0348 5.42553 6.0348 6.08511H8.45708C8.79118 6.08511 8.91647 6.21277 8.91647 6.55319V9.12766C8.91647 9.46809 8.81207 9.57447 8.45708 9.57447C7.70534 9.57447 6.09745 9.57447 6.0348 9.57447V16.5106C6.0348 16.8723 5.93039 17 5.55452 17C4.67749 17 3.82135 17 2.94432 17C2.63109 17 2.5058 16.8723 2.5058 16.5532C2.5058 14.3191 2.5058 9.65957 2.5058 9.59574Z"/>
</svg>
