<svg width="18" height="18" viewBox="0 0 18 18" fill="currentColor" xmlns="http://www.w3.org/2000/svg">
<path fill-rule="evenodd" clip-rule="evenodd" d="M6.45833 17.9167H11.4583C15.9833 17.9167 17.9167 15.9833 17.9167 11.4583V6.45833C17.9167 1.93333 15.9833 0 11.4583 0H6.45833C1.93333 0 0 1.93333 0 6.45833V11.4583C0 15.9833 1.93333 17.9167 6.45833 17.9167ZM1.25 6.45833C1.25 2.61667 2.61667 1.25 6.45833 1.25H11.4583C15.3 1.25 16.6667 2.61667 16.6667 6.45833V11.4583C16.6667 15.3 15.3 16.6667 11.4583 16.6667H6.45833C2.61667 16.6667 1.25 15.3 1.25 11.4583V6.45833ZM3.5167 14.4C3.6417 14.525 3.80003 14.5833 3.95837 14.5833C3.95901 14.5833 3.95965 14.5833 3.96029 14.5833H7.29171C7.63337 14.5833 7.91671 14.3 7.91671 13.9583C7.91671 13.6167 7.63337 13.3333 7.29171 13.3333H5.4667L13.3333 5.4667V7.29168C13.3333 7.63334 13.6167 7.91668 13.9583 7.91668C14.3 7.91668 14.5833 7.63334 14.5833 7.29168V3.95834C14.5833 3.86626 14.5628 3.77841 14.526 3.69921C14.4961 3.6328 14.4541 3.57077 14.4 3.51667C14.3462 3.46284 14.2845 3.421 14.2185 3.39115C14.139 3.3541 14.0508 3.33334 13.9583 3.33334H10.625C10.2833 3.33334 10 3.61668 10 3.95834C10 4.30001 10.2833 4.58334 10.625 4.58334H12.45L4.58337 12.45V10.625C4.58337 10.2833 4.30004 10 3.95837 10C3.61671 10 3.33337 10.2833 3.33337 10.625V13.9583C3.33337 14.0512 3.3543 14.1397 3.39164 14.2195C3.42146 14.2851 3.46314 14.3464 3.5167 14.4Z"/>
</svg>
