<svg width="12" height="12" viewBox="0 0 12 12" fill="currentColor" xmlns="http://www.w3.org/2000/svg">
<path d="M12 6.00408C12.0021 7.34464 11.5531 8.6471 10.7251 9.70282C9.89713 10.7585 8.73796 11.5064 7.43331 11.8267C6.12866 12.1469 4.75404 12.021 3.52965 11.469C2.30527 10.9171 1.30198 9.97108 0.680499 8.78256C0.0590197 7.59403 -0.144679 6.23178 0.102033 4.91401C0.348745 3.59624 1.03159 2.39923 2.04118 1.51472C3.05077 0.630212 4.32868 0.109399 5.6702 0.0357108C7.01171 -0.0379771 8.3392 0.339725 9.44 1.10831L9.36666 0.895453C9.31008 0.723446 9.3243 0.536057 9.40619 0.37451C9.48808 0.212963 9.63094 0.0904921 9.80333 0.0340383C9.97572 -0.0224155 10.1635 -0.00822741 10.3254 0.0734815C10.4873 0.15519 10.6101 0.297727 10.6667 0.469735L11.3333 2.46529C11.3664 2.56532 11.3752 2.67176 11.3589 2.77584C11.3427 2.87992 11.3019 2.97867 11.24 3.06396C11.1755 3.15464 11.0892 3.22772 10.989 3.27653C10.8888 3.32533 10.778 3.3483 10.6667 3.34334H8.66666C8.48985 3.34334 8.32028 3.27325 8.19526 3.14851C8.07023 3.02376 8 2.85457 8 2.67815C8.00241 2.53735 8.04953 2.40095 8.13459 2.28859C8.21966 2.17622 8.33826 2.09369 8.47333 2.05288C7.59636 1.50598 6.56216 1.26524 5.53317 1.36846C4.50419 1.47169 3.53872 1.91302 2.78841 2.62316C2.03809 3.33329 1.54544 4.27199 1.38784 5.29181C1.23024 6.31163 1.41661 7.3548 1.91769 8.25746C2.41876 9.16012 3.20615 9.87115 4.15617 10.2788C5.1062 10.6865 6.16504 10.7678 7.16639 10.5099C8.16773 10.252 9.05486 9.66953 9.68841 8.85396C10.322 8.0384 10.6661 7.03595 10.6667 6.00408C10.6667 5.82766 10.7369 5.65847 10.8619 5.53372C10.9869 5.40897 11.1565 5.33889 11.3333 5.33889C11.5101 5.33889 11.6797 5.40897 11.8047 5.53372C11.9298 5.65847 12 5.82766 12 6.00408Z"/>
</svg>
