<svg width="52" height="203" viewBox="0 0 52 203" fill="none" xmlns="http://www.w3.org/2000/svg" opacity="0.1">
<g clip-path="url(#clip0_3208_774)">
<path d="M35.5556 185.666C43.1145 177.756 51.7714 178.093 51.7714 178.093C51.7714 178.093 52.0944 187.152 44.5356 195.063C36.9767 202.973 28.3177 202.636 28.3177 202.636C28.3177 202.636 27.9956 193.576 35.5556 185.666Z" fill="#437E60"/>
<path d="M35.5556 156.039C43.1145 148.129 51.7714 148.466 51.7714 148.466C51.7714 148.466 52.0944 157.526 44.5356 165.436C36.9767 173.346 28.3177 173.009 28.3177 173.009C28.3177 173.009 27.9956 163.95 35.5556 156.039Z" fill="#437E60"/>
<path d="M35.5556 126.413C43.1145 118.503 51.7714 118.839 51.7714 118.839C51.7714 118.839 52.0944 127.899 44.5356 135.81C36.9767 143.72 28.3177 143.383 28.3177 143.383C28.3177 143.383 27.9956 134.323 35.5556 126.413Z" fill="#437E60"/>
<path d="M35.5556 96.5248C43.1145 88.8879 51.7714 89.2129 51.7714 89.2129C51.7714 89.2129 52.0944 97.9604 44.5356 105.598C36.9767 113.235 28.3177 112.91 28.3177 112.91C28.3177 112.91 27.9956 104.163 35.5556 96.5248Z" fill="#437E60"/>
<path d="M35.5556 66.3128C43.1145 58.4029 51.7714 58.7396 51.7714 58.7396C51.7714 58.7396 52.0944 67.7999 44.5356 75.71C36.9767 83.62 28.3177 83.2832 28.3177 83.2832C28.3177 83.2832 27.9956 74.2236 35.5556 66.3128Z" fill="#437E60"/>
<path d="M35.5556 36.6861C43.1145 28.7762 51.7714 29.1129 51.7714 29.1129C51.7714 29.1129 52.0944 38.1732 44.5356 46.0833C36.9767 53.9933 28.3177 53.6565 28.3177 53.6565C28.3177 53.6565 27.9956 44.5969 35.5556 36.6861Z" fill="#437E60"/>
<path d="M35.5556 7.05969C43.1145 -0.850316 51.7714 -0.513551 51.7714 -0.513551C51.7714 -0.513551 52.0944 8.54674 44.5356 16.4568C36.9767 24.3668 28.3177 24.03 28.3177 24.03C28.3177 24.03 27.9956 14.9705 35.5556 7.05969Z" fill="#437E60"/>
<path d="M16.2219 185.666C8.66337 177.756 0.00611305 178.092 0.00611305 178.092C0.00611305 178.092 -0.316367 187.152 7.24204 195.063C14.8004 202.973 23.4599 202.636 23.4599 202.636C23.4599 202.636 23.782 193.576 16.2219 185.666Z" fill="#437E60"/>
<path d="M16.2219 156.039C8.66337 148.129 0.00611305 148.466 0.00611305 148.466C0.00611305 148.466 -0.316367 157.526 7.24204 165.436C14.8004 173.346 23.4599 173.009 23.4599 173.009C23.4599 173.009 23.782 163.95 16.2219 156.039Z" fill="#437E60"/>
<path d="M16.2219 126.413C8.66337 118.503 0.00611305 118.839 0.00611305 118.839C0.00611305 118.839 -0.316367 127.899 7.24204 135.81C14.8004 143.72 23.4599 143.383 23.4599 143.383C23.4599 143.383 23.782 134.323 16.2219 126.413Z" fill="#437E60"/>
<path d="M16.2219 96.5248C8.66337 88.8879 0.00611305 89.2129 0.00611305 89.2129C0.00611305 89.2129 -0.316367 97.9604 7.24204 105.598C14.8004 113.235 23.4599 112.91 23.4599 112.91C23.4599 112.91 23.782 104.163 16.2219 96.5248Z" fill="#437E60"/>
<path d="M16.2219 66.3126C8.66337 58.4027 0.00611305 58.7394 0.00611305 58.7394C0.00611305 58.7394 -0.316367 67.7997 7.24204 75.7097C14.8004 83.6198 23.4599 83.2829 23.4599 83.2829C23.4599 83.2829 23.782 74.2234 16.2219 66.3126Z" fill="#437E60"/>
<path d="M16.2219 36.6861C8.66337 28.7762 0.00611305 29.1129 0.00611305 29.1129C0.00611305 29.1129 -0.316367 38.1732 7.24204 46.0833C14.8004 53.9933 23.4599 53.6565 23.4599 53.6565C23.4599 53.6565 23.782 44.5969 16.2219 36.6861Z" fill="#437E60"/>
<path d="M16.2219 7.05969C8.66337 -0.850315 0.00611305 -0.513549 0.00611305 -0.513549C0.00611305 -0.513549 -0.316367 8.54675 7.24204 16.4568C14.8004 24.3668 23.4599 24.03 23.4599 24.03C23.4599 24.03 23.782 14.9705 16.2219 7.05969Z" fill="#437E60"/>
</g>
<defs>
<clipPath id="clip0_3208_774">
<rect width="204" height="52" fill="white" transform="translate(52 -1) rotate(90)"/>
</clipPath>
</defs>
</svg>
