<svg width="16" height="16" viewBox="0 0 16 16" fill="currentColor" xmlns="http://www.w3.org/2000/svg">
<path d="M16.0002 16V10.14C16.0002 7.26 15.3802 5.06 12.0202 5.06C10.4002 5.06 9.32016 5.94 8.88016 6.78H8.84016V5.32H5.66016V16H8.98016V10.7C8.98016 9.30001 9.24016 7.96 10.9602 7.96C12.6602 7.96 12.6802 9.54001 12.6802 10.78V15.98H16.0002V16Z" />
<path d="M0.259766 5.32001H3.57977V16H0.259766V5.32001Z" />
<path d="M1.92 0C0.860002 0 0 0.860002 0 1.92C0 2.98001 0.860002 3.86001 1.92 3.86001C2.98001 3.86001 3.84001 2.98001 3.84001 1.92C3.84001 0.860002 2.98001 0 1.92 0Z" />
</svg>
