<svg width="18" height="18" viewBox="0 0 18 18" fill="currentColor" xmlns="http://www.w3.org/2000/svg">
<path fill-rule="evenodd" clip-rule="evenodd" d="M10.8284 1.22999C12.4684 -0.409998 15.1273 -0.409998 16.7673 1.22999C18.4073 2.86999 18.4073 5.52894 16.7672 7.16893L12.9489 10.9872C12.4118 11.5245 11.739 11.906 11.0023 12.0911H10.9692L10.7953 12.127L10.6993 12.145L10.4923 12.175H10.3904C10.3451 12.175 10.3029 12.1801 10.2626 12.1849C10.2334 12.1884 10.2051 12.1918 10.1774 12.193L9.99742 12.214H9.97942H9.76947C9.61984 12.208 9.47066 12.194 9.32254 12.172C9.19959 12.151 9.07959 12.127 8.95962 12.097L8.78264 12.0491C8.71965 12.0311 8.65367 12.0101 8.59068 11.9861C8.56762 11.9773 8.54415 11.9689 8.52057 11.9605C8.47977 11.9459 8.43865 11.9312 8.39873 11.9141C8.37774 11.9051 8.35674 11.8964 8.33575 11.8877C8.29376 11.8704 8.25176 11.8531 8.20976 11.8331C7.76336 11.6262 7.35717 11.3419 7.00999 10.9933C6.76682 10.7495 6.64011 10.413 6.66204 10.0694C6.68134 9.7798 6.80496 9.507 7.00999 9.30155C7.48349 8.85589 8.22214 8.85589 8.69568 9.30155C9.39832 10.0033 10.5366 10.0033 11.2392 9.30155L12.223 8.32372L12.2471 8.29672L15.0606 5.48623C15.7638 4.78302 15.7638 3.6429 15.0606 2.93969C14.3574 2.23648 13.2172 2.23648 12.514 2.93969L10.2554 5.1953C10.1699 5.28142 10.0408 5.3075 9.92849 5.26127C9.32015 5.01248 8.66907 4.88513 8.01183 4.88633H7.90087C7.77833 4.88869 7.6667 4.81624 7.61893 4.70337C7.5706 4.59082 7.59552 4.46024 7.68192 4.37342L10.8284 1.22999ZM10.2765 6.44906C10.5317 6.61135 10.7681 6.80148 10.9813 7.01596C11.2245 7.25969 11.3512 7.59618 11.3293 7.93977C11.3086 8.2273 11.1851 8.49774 10.9814 8.70165C10.5079 9.14731 9.76923 9.14731 9.29569 8.70165C8.59305 7.99988 7.45478 7.99988 6.75214 8.70165L2.92181 12.529C2.2186 13.2322 2.2186 14.3723 2.92181 15.0755C3.62502 15.7787 4.76514 15.7787 5.46835 15.0755L7.73296 12.8079C7.81852 12.7218 7.94759 12.6957 8.05989 12.7419C8.66939 12.9898 9.32153 13.1162 9.97954 13.1138H10.0995C10.2652 13.1129 10.4002 13.2464 10.4012 13.4121C10.4017 13.4926 10.3697 13.57 10.3125 13.6268L7.16304 16.7762C6.37687 17.5633 5.30898 18.0038 4.19656 18C1.87736 17.9985 -0.00147456 16.1172 8.68384e-07 13.798C0.000704737 12.6867 0.441978 11.6209 1.22709 10.8343L5.04241 7.01596C5.82885 6.22677 6.89773 5.78409 8.01188 5.78617C8.8146 5.78617 9.60048 6.01619 10.2765 6.44906Z"/>
</svg>
