<svg width="16" height="18" viewBox="0 0 16 18" fill="currentColor" xmlns="http://www.w3.org/2000/svg">
<path fill-rule="evenodd" clip-rule="evenodd" d="M7.87153 15.1332V16.0302C7.87153 16.7496 7.51495 17.3706 6.89533 17.7302C6.59721 17.9033 6.26448 17.9998 5.91951 18C5.57422 18.0002 5.24159 17.9035 4.94327 17.7302L0.976206 15.4274C0.35651 15.0677 0 14.4468 0 13.7273V1.96305C0 0.880557 0.875819 0 1.95241 0H10.6893C11.766 0 12.6419 0.880487 12.6419 1.96305V4.44293C12.6419 4.79868 12.3546 5.08752 12.0008 5.08752C11.6468 5.08752 11.3598 4.79871 11.3598 4.44293V1.96305C11.3598 1.59134 11.059 1.2889 10.6893 1.2889H3.03351L6.89533 3.53105C7.51474 3.8907 7.87153 4.51156 7.87153 5.23075V13.8441H10.6893C11.059 13.8441 11.3598 13.5418 11.3598 13.1701V10.9962C11.3598 10.6402 11.6467 10.3516 12.0008 10.3516C12.3547 10.3516 12.6419 10.6403 12.6419 10.9962V13.1701C12.6419 14.2527 11.766 15.1332 10.6893 15.1332H7.87153ZM13.8116 8.21101L13.1056 8.92085C12.8553 9.17253 12.8554 9.58055 13.1056 9.83227C13.2261 9.95349 13.3885 10.0208 13.5589 10.0208C13.7294 10.0208 13.8916 9.95366 14.0123 9.83227L15.8123 8.02215C16.0625 7.7705 16.0626 7.36269 15.8123 7.11104L14.0123 5.3012C13.7619 5.04948 13.3561 5.04959 13.1056 5.30117C12.8554 5.5526 12.8555 5.9608 13.1056 6.21231L13.8116 6.92197H9.08215C8.72798 6.92197 8.44119 7.21053 8.44119 7.56659C8.44119 7.92266 8.72802 8.21104 9.08215 8.21104H13.8116V8.21101Z"/>
</svg>
