<svg width="36" height="24" viewBox="0 0 48 32" fill="none" xmlns="http://www.w3.org/2000/svg">
<path d="M48 29.2569C48 30.7718 46.7297 31.9999 45.1627 31.9999H2.83734C1.27031 31.9999 0 30.7718 0 29.2569V2.74289C0 1.22799 1.27031 0 2.83734 0H45.1627C46.7298 0 48 1.22808 48 2.74289V29.2569Z" fill="#252525"/>
<path d="M27.7765 9.71069H20.1992V22.288H27.7765V9.71069Z" fill="#FF5A00"/>
<path d="M20.7046 16C20.7046 13.4447 22.0048 11.1767 24 9.71133C22.5316 8.64466 20.6794 8 18.6589 8C13.8727 8 10 11.578 10 16C10 20.422 13.8727 24 18.6589 24C20.6794 24 22.5316 23.3553 24 22.2887C22.002 20.844 20.7046 18.5553 20.7046 16Z" fill="#EB001B"/>
<path d="M38 16C38 20.422 34.1273 24 29.3411 24C27.3207 24 25.4684 23.3553 24 22.2887C26.0204 20.8207 27.2954 18.5553 27.2954 16C27.2954 13.4447 25.9952 11.1767 24 9.71133C25.4656 8.64466 27.3179 8 29.3383 8C34.1273 8 38 11.6013 38 16Z" fill="#F79E1B"/>
</svg>
