<svg width="17" height="18" viewBox="0 0 17 18" fill="currentColor" xmlns="http://www.w3.org/2000/svg">
<path fill-rule="evenodd" clip-rule="evenodd" d="M1.47922 4.30074H3.88361V5.5434C3.88361 5.76 4.06809 5.93559 4.29565 5.93559C4.52322 5.93559 4.7077 5.76 4.7077 5.5434V4.30074H9.02323V5.5434C9.02323 5.76 9.20771 5.93559 9.43528 5.93559C9.66284 5.93559 9.84732 5.76 9.84732 5.5434V4.30074H12.2517C12.5188 4.30074 12.7401 4.49292 12.7645 4.74608L13.1522 8.75986C12.9688 8.74172 12.7827 8.73229 12.5943 8.73229C9.64988 8.73229 7.26293 11.0042 7.26293 13.8067C7.26293 14.496 7.40761 15.153 7.66915 15.7522H1.00909C0.715149 15.7522 0.46209 15.6459 0.263994 15.4392C0.0658588 15.2325 -0.0221582 14.9829 0.00472514 14.7043L0.966356 4.74608C0.990809 4.49292 1.21209 4.30074 1.47922 4.30074ZM3.88361 4.23617V2.83808C3.88361 2.0572 4.21894 1.34758 4.75919 0.833372C5.29944 0.319164 6.045 0 6.86543 0C7.68585 0 8.43141 0.319164 8.97166 0.833372C9.51192 1.34758 9.84725 2.05724 9.84725 2.83808V4.23617H9.02319V2.83808C9.02319 2.27372 8.78032 1.76032 8.38902 1.38793C7.99773 1.01549 7.4584 0.784326 6.86543 0.784326C6.27249 0.784326 5.73312 1.01549 5.34183 1.38793C4.95053 1.76032 4.70766 2.27368 4.70766 2.83808V4.23617H3.88361ZM12.5943 9.61335C10.1611 9.61335 8.18857 11.4908 8.18857 13.8067C8.18857 16.1226 10.1611 18 12.5943 18C15.0275 18 17 16.1226 17 13.8067C17 11.4908 15.0275 9.61335 12.5943 9.61335ZM10.4408 14.0549L11.7589 15.2071C11.9436 15.3688 12.2295 15.3602 12.4031 15.1898L14.7551 13.0464C14.9388 12.8782 14.9445 12.6001 14.7678 12.4252C14.591 12.2504 14.2988 12.245 14.1151 12.4132L12.0653 14.2811L11.0663 13.4079C10.8786 13.2435 10.5864 13.2551 10.4136 13.4337C10.2409 13.6124 10.253 13.8905 10.4408 14.0549Z"/>
</svg>
