<svg width="19" height="20" viewBox="0 0 19 20" fill="currentColor" xmlns="http://www.w3.org/2000/svg">
<path d="M17.2692 5.66406H1.73077C0.776423 5.66406 0 6.45262 0 7.42188V14.4531C0 15.4224 0.776423 16.2109 1.73077 16.2109H17.2692C18.2236 16.2109 19 15.4224 19 14.4531V7.42188C19 6.45262 18.2236 5.66406 17.2692 5.66406ZM4.56696 11.8491C4.41946 11.8491 4.16746 11.8502 3.93158 11.8514V13.2029C3.93158 13.5264 3.67327 13.7888 3.35465 13.7888C3.03604 13.7888 2.77773 13.5264 2.77773 13.2029L2.76923 8.75188C2.76873 8.59617 2.82931 8.44664 2.93754 8.33633C3.04577 8.22602 3.19285 8.16406 3.34615 8.16406H4.56696C5.58065 8.16406 6.40538 8.99063 6.40538 10.0066C6.40538 11.0226 5.58065 11.8491 4.56696 11.8491ZM9.51958 13.6475C9.17596 13.6536 8.31646 13.6569 8.28004 13.6571C8.27931 13.6571 8.27858 13.6571 8.27785 13.6571C8.12562 13.6571 7.9795 13.596 7.87142 13.487C7.76281 13.3775 7.7015 13.2287 7.70092 13.0732C7.70088 13.0576 7.69231 8.75113 7.69231 8.75113C7.69204 8.59555 7.75265 8.44621 7.86088 8.33609C7.96912 8.22598 8.11604 8.16406 8.26923 8.16406H9.47423C10.847 8.16406 11.7693 9.26781 11.7693 10.9106C11.7693 12.4733 10.8232 13.6244 9.51958 13.6475ZM15.4315 10.2871C15.7502 10.2871 16.0085 10.5495 16.0085 10.873C16.0085 11.1966 15.7502 11.459 15.4315 11.459H14.3846V13.125C14.3846 13.4486 14.1263 13.7109 13.8077 13.7109C13.4891 13.7109 13.2308 13.4486 13.2308 13.125V8.70477C13.2308 8.38117 13.4891 8.11883 13.8077 8.11883H15.5717C15.8903 8.11883 16.1486 8.38117 16.1486 8.70477C16.1486 9.02836 15.8903 9.2907 15.5717 9.2907H14.3846V10.2871H15.4315Z"/>
<path d="M9.47421 9.33594H8.84717C8.84805 9.86484 8.85121 11.9732 8.85282 12.4821C9.0929 12.4806 9.34998 12.4784 9.4994 12.4758C10.2704 12.4621 10.6155 11.6798 10.6155 10.9106C10.6154 10.5412 10.5332 9.33594 9.47421 9.33594Z"/>
<path d="M4.56696 9.33594H3.9248C3.9255 9.59668 3.92615 9.87406 3.92615 10.0066C3.92615 10.1615 3.92723 10.4301 3.92846 10.6796C4.16523 10.6784 4.41815 10.6773 4.567 10.6773C4.93807 10.6773 5.25157 10.3702 5.25157 10.0066C5.25157 9.64305 4.93804 9.33594 4.56696 9.33594Z"/>
<path d="M16.6713 4.49219C16.5376 4.11992 16.3299 3.77586 16.0549 3.48125L13.6586 0.914023C13.1163 0.333164 12.3533 0 11.5652 0H3.88461C2.93026 0 2.15384 0.788555 2.15384 1.75781V4.49219H16.6713Z"/>
<path d="M2.15384 17.3828V18.2422C2.15384 19.2114 2.93026 20 3.88461 20H15.1154C16.0697 20 16.8461 19.2114 16.8461 18.2422V17.3828H2.15384Z"/>
</svg>
