<svg width="20" height="20" viewBox="0 0 20 20" fill="none" xmlns="http://www.w3.org/2000/svg">
<rect width="20" height="20" fill="#D9D9D9" fill-opacity="0.01"/>
<path fill-rule="evenodd" clip-rule="evenodd" d="M17.3267 1.55293L18.4292 2.65655C18.7973 3.02499 19 3.51521 19 4.03657C19 4.55794 18.7973 5.04815 18.4292 5.41645L17.0788 6.76832L13.2193 2.9048L14.5697 1.55293C15.3057 0.816046 16.5899 0.815331 17.3267 1.55293ZM2.21212 13.9234L12.116 4.00842L15.9756 7.87208L6.07087 17.7863C6.02104 17.8362 5.95865 17.8721 5.88998 17.8892L1.48386 18.9883C1.45273 18.9961 1.42075 19 1.38949 19C1.28741 19 1.18761 18.9594 1.11437 18.8861C1.01757 18.7892 0.978597 18.648 1.01143 18.5152L2.10918 14.1045C2.12631 14.0366 2.16229 13.9734 2.21212 13.9234Z" fill="#889EA6"/>
</svg>
