<svg width="32" height="32" viewBox="0 0 32 32" fill="none" xmlns="http://www.w3.org/2000/svg">
<g id="Group 4344048">
<circle id="Ellipse 508" cx="16" cy="16" r="15.5" fill="#024242" stroke="#D99F59"/>
<g id="crown">
<path id="Vector" d="M24.9804 14.4115L23.2807 22.4179C23.247 22.5854 23.1595 22.7352 23.0334 22.8414C22.9073 22.9476 22.7504 23.0036 22.5897 22.9998H9.35126C9.19058 23.0036 9.03368 22.9476 8.90757 22.8414C8.78146 22.7352 8.69402 22.5854 8.66031 22.4179L7.01587 14.4115C6.98819 14.2762 6.99685 14.1353 7.04084 14.0051C7.08484 13.8748 7.16239 13.7604 7.26461 13.6749C7.3671 13.5892 7.49025 13.5361 7.61984 13.5217C7.74943 13.5074 7.88018 13.5324 7.99701 13.5939L12.0321 15.6784L15.3763 9.3734C15.4365 9.26004 15.5239 9.16576 15.6295 9.10016C15.7351 9.03456 15.8552 9 15.9774 9C16.0996 9 16.2197 9.03456 16.3253 9.10016C16.4309 9.16576 16.5183 9.26004 16.5785 9.3734L19.9227 15.6857L23.9854 13.5865C24.1031 13.5201 24.2363 13.4912 24.369 13.5035C24.5016 13.5158 24.6281 13.5688 24.7333 13.6559C24.8384 13.7431 24.9176 13.8608 24.9615 13.9948C25.0053 14.1289 25.0119 14.2736 24.9804 14.4115Z" fill="#D99F59"/>
</g>
</g>
</svg>
