<svg width="15" height="18" viewBox="0 0 15 18" fill="currentColor" xmlns="http://www.w3.org/2000/svg">
<path fill-rule="evenodd" clip-rule="evenodd" d="M10.4484 7.40047C9.60664 8.24339 8.57636 8.67062 7.38655 8.67062C6.19702 8.67062 5.16688 8.24325 4.32494 7.40061C3.48299 6.55783 3.05612 5.52649 3.05612 4.33517C3.05612 3.14413 3.48299 2.11279 4.3248 1.27001C5.16661 0.427228 6.19661 0 7.38655 0C8.57622 0 9.60636 0.427228 10.4483 1.26987C11.2903 2.11293 11.717 3.14426 11.717 4.33517C11.717 5.52649 11.2903 6.55769 10.4484 7.40047ZM14.818 12.7037C14.8903 13.1077 14.9394 13.4903 14.9636 13.841C14.9877 14.1838 14.9999 14.5415 15 14.9042C15 15.8442 14.7017 16.605 14.1132 17.1656C13.532 17.7193 12.7635 18 11.8285 18H3.17149C2.23654 18 1.46771 17.7192 0.886662 17.1656C0.298343 16.6046 0 15.8439 0 14.9044C0 14.5433 0.0120709 14.1859 0.0359383 13.8414C0.0602173 13.4899 0.109324 13.1071 0.181612 12.7037C0.254586 12.2966 0.348547 11.912 0.460888 11.5603C0.577208 11.1965 0.735227 10.8377 0.930419 10.4936C1.13288 10.1367 1.37114 9.82596 1.63821 9.56998C1.9179 9.30205 2.26014 9.08686 2.65546 8.93017C3.04955 8.77389 3.48629 8.69465 3.95376 8.69465C4.1373 8.69465 4.31493 8.77004 4.65731 8.99348C4.87143 9.13314 5.11833 9.29244 5.39116 9.46698C5.62641 9.61722 5.94546 9.75798 6.33914 9.88528C6.72403 10.0098 7.11428 10.073 7.49959 10.073C7.8849 10.073 8.27528 10.0098 8.65977 9.88528C9.05385 9.75784 9.37291 9.61708 9.60843 9.46685C9.88386 9.29065 10.1306 9.13135 10.3416 8.99361C10.6844 8.77018 10.8619 8.69479 11.0454 8.69479C11.5127 8.69479 11.9496 8.77389 12.3439 8.93003C12.7395 9.087 13.0816 9.30219 13.361 9.56984C13.6282 9.82568 13.8663 10.1366 14.069 10.4936C14.2644 10.8377 14.4224 11.1966 14.5386 11.5601C14.651 11.9118 14.745 12.2966 14.818 12.7037Z"/>
</svg>
