<svg width="22" height="18" viewBox="0 0 22 18" fill="currentColor" xmlns="http://www.w3.org/2000/svg">
<path fill-rule="evenodd" clip-rule="evenodd" d="M8.5234 1.05476H9.15387C10.0446 1.05476 10.7693 1.76447 10.7693 2.63689C10.7693 2.92839 10.5284 3.16427 10.2308 3.16427H3.76925C3.47163 3.16427 3.23079 2.92839 3.23079 2.63689C3.23079 1.76447 3.95542 1.05476 4.84618 1.05476H5.47664C5.6991 0.440853 6.29801 0 7.00002 0C7.70203 0 8.30095 0.440853 8.5234 1.05476ZM11.7917 2.11107H12.3846C13.2754 2.11107 14 2.82078 14 3.69321V16.4206C14 17.293 13.2754 18.0028 12.3846 18.0028H1.61539C0.724626 18.0028 0 17.293 0 16.4206V3.69321C0 2.82078 0.724626 2.11107 1.61539 2.11107H2.20834C2.17284 2.28156 2.15385 2.45788 2.15385 2.63845C2.15385 3.51088 2.87847 4.22059 3.76923 4.22059H10.2308C11.1215 4.22059 11.8462 3.51088 11.8462 2.63845C11.8462 2.45788 11.8272 2.28156 11.7917 2.11107ZM3.23077 14.7682H5.38462C5.68225 14.7682 5.92308 14.5323 5.92308 14.2408C5.92308 13.9493 5.68225 13.7134 5.38462 13.7134H3.23077C2.93315 13.7134 2.69231 13.9493 2.69231 14.2408C2.69231 14.5323 2.93315 14.7682 3.23077 14.7682ZM3.23077 11.0765H5.38462C5.68225 11.0765 5.92308 10.8406 5.92308 10.5491C5.92308 10.2576 5.68225 10.0218 5.38462 10.0218H3.23077C2.93315 10.0218 2.69231 10.2576 2.69231 10.5491C2.69231 10.8406 2.93315 11.0765 3.23077 11.0765ZM3.23077 7.38486H5.38462C5.68225 7.38486 5.92308 7.14898 5.92308 6.85748C5.92308 6.56598 5.68225 6.3301 5.38462 6.3301H3.23077C2.93315 6.3301 2.69231 6.56598 2.69231 6.85748C2.69231 7.14898 2.93315 7.38486 3.23077 7.38486ZM10.6115 15.6684C10.8218 15.4624 10.8218 15.1287 10.6115 14.9227L9.91527 14.2408L10.6115 13.5589C10.8218 13.3529 10.8218 13.0191 10.6115 12.8131C10.4012 12.6071 10.0604 12.6071 9.85008 12.8131L9.15385 13.495L8.45762 12.8131C8.2473 12.6071 7.90652 12.6071 7.6962 12.8131C7.48588 13.0191 7.48588 13.3529 7.6962 13.5589L8.39243 14.2408L7.69624 14.9227C7.48591 15.1287 7.48591 15.4624 7.69624 15.6684C7.80138 15.7714 7.93919 15.823 8.07693 15.823C8.21467 15.823 8.35244 15.7714 8.45762 15.6684L9.15385 14.9865L9.85008 15.6684C9.95523 15.7714 10.093 15.823 10.2308 15.823C10.3685 15.823 10.5063 15.7714 10.6115 15.6684ZM9.53455 11.4494L11.1499 9.86723C11.3603 9.66124 11.3603 9.32748 11.15 9.12148C10.9396 8.91549 10.5989 8.91549 10.3885 9.12148L9.15385 10.3308L8.45766 9.64886C8.24733 9.44287 7.90656 9.44287 7.69624 9.64886C7.48591 9.85486 7.48591 10.1886 7.69624 10.3946L8.77316 11.4494C8.8783 11.5524 9.01611 11.6039 9.15385 11.6039C9.29159 11.6039 9.42937 11.5524 9.53455 11.4494ZM9.53455 8.2851L11.1499 6.70296C11.3603 6.49696 11.3603 6.1632 11.15 5.95721C10.9396 5.75122 10.5989 5.75122 10.3885 5.95721L9.15385 7.16649L8.45766 6.48459C8.24733 6.27859 7.90656 6.27859 7.69624 6.48459C7.48591 6.69058 7.48591 7.02434 7.69624 7.23034L8.77316 8.2851C8.8783 8.38811 9.01611 8.43962 9.15385 8.43962C9.29159 8.43962 9.42937 8.38811 9.53455 8.2851Z" fill="currentColor"/>
</svg>
