<svg width="40" height="34" viewBox="0 0 40 34" fill="currentColor" xmlns="http://www.w3.org/2000/svg">
<path d="M39.9908 9.38131C39.9908 9.37705 39.9913 9.37279 39.9913 9.36853C39.9913 4.19437 35.7283 0 30.4694 0C25.2106 0 20.9477 4.1943 20.9477 9.36853C20.9477 14.5428 25.2111 18.7371 30.4695 18.7371C31.5503 18.7371 32.5848 18.5517 33.5529 18.2251C31.4106 30.3167 21.8271 38.1145 30.7109 31.6967C40.5618 24.5801 40.0018 9.65438 39.9908 9.38131Z" />
<path d="M9.52185 18.737C10.6026 18.737 11.6372 18.5516 12.6057 18.225C10.4629 30.3166 0.879373 38.1145 9.76325 31.6967C19.6141 24.5801 19.0543 9.65438 19.0432 9.38132C19.0432 9.37705 19.0436 9.37279 19.0436 9.36853C19.0436 4.19437 14.7807 0 9.52185 0C4.26294 0 0 4.1943 0 9.36853C0 14.5428 4.26341 18.737 9.52185 18.737Z" />
</svg>
