<svg width="17" height="18" viewBox="0 0 17 18" fill="currentColor" xmlns="http://www.w3.org/2000/svg">
<path d="M14.6965 1.2H13.9643V0.6C13.9643 0.44087 13.9003 0.288258 13.7865 0.175736C13.6726 0.0632141 13.5182 0 13.3571 0C13.1961 0 13.0417 0.0632141 12.9278 0.175736C12.814 0.288258 12.75 0.44087 12.75 0.6V1.2H9.10714V0.6C9.10714 0.44087 9.04318 0.288258 8.92932 0.175736C8.81545 0.0632141 8.66102 0 8.5 0C8.33898 0 8.18455 0.0632141 8.07069 0.175736C7.95682 0.288258 7.89286 0.44087 7.89286 0.6V1.2H4.25V0.6C4.25 0.44087 4.18603 0.288258 4.07217 0.175736C3.95831 0.0632141 3.80388 0 3.64286 0C3.48183 0 3.3274 0.0632141 3.21354 0.175736C3.09968 0.288258 3.03571 0.44087 3.03571 0.6V1.2H2.3035C1.69287 1.20095 1.10752 1.44109 0.675744 1.86779C0.243962 2.2945 0.000963394 2.87295 0 3.4764V15.7236C0.000963394 16.327 0.243962 16.9055 0.675744 17.3322C1.10752 17.7589 1.69287 17.999 2.3035 18H14.6965C15.3071 17.999 15.8925 17.7589 16.3243 17.3322C16.756 16.9055 16.999 16.327 17 15.7236V3.4764C16.999 2.87295 16.756 2.2945 16.3243 1.86779C15.8925 1.44109 15.3071 1.20095 14.6965 1.2ZM7.10721 11.8242L5.28579 13.6242C5.17193 13.7367 5.01753 13.7999 4.85654 13.7999C4.69554 13.7999 4.54114 13.7367 4.42729 13.6242L3.213 12.4242C3.15501 12.3689 3.10876 12.3026 3.07694 12.2294C3.04512 12.1562 3.02837 12.0775 3.02767 11.9978C3.02697 11.9182 3.04233 11.8392 3.07286 11.7654C3.10339 11.6917 3.14847 11.6247 3.20547 11.5684C3.26248 11.512 3.33027 11.4675 3.40489 11.4373C3.4795 11.4071 3.55945 11.392 3.64007 11.3926C3.72068 11.3933 3.80035 11.4099 3.87442 11.4413C3.9485 11.4728 4.01549 11.5185 4.0715 11.5758L4.85714 12.3516L6.24932 10.9758C6.36383 10.8665 6.5172 10.806 6.67639 10.8074C6.83558 10.8088 6.98786 10.8719 7.10043 10.9831C7.213 11.0944 7.27685 11.2448 7.27823 11.4022C7.27961 11.5595 7.21842 11.711 7.10782 11.8242H7.10721ZM7.10721 6.4242L5.28579 8.2242C5.17193 8.33668 5.01753 8.39987 4.85654 8.39987C4.69554 8.39987 4.54114 8.33668 4.42729 8.2242L3.213 7.0242C3.15501 6.96885 3.10876 6.90265 3.07694 6.82944C3.04512 6.75624 3.02837 6.67751 3.02767 6.59784C3.02697 6.51817 3.04233 6.43917 3.07286 6.36543C3.10339 6.29169 3.14847 6.2247 3.20547 6.16836C3.26248 6.11203 3.33027 6.06748 3.40489 6.03731C3.4795 6.00714 3.55945 5.99196 3.64007 5.99265C3.72068 5.99334 3.80035 6.00989 3.87442 6.04134C3.9485 6.07278 4.01549 6.11849 4.0715 6.1758L4.85714 6.9516L6.24932 5.5758C6.36383 5.46651 6.5172 5.40603 6.67639 5.4074C6.83558 5.40876 6.98786 5.47186 7.10043 5.58311C7.213 5.69435 7.27685 5.84484 7.27823 6.00216C7.27961 6.15948 7.21842 6.31104 7.10782 6.4242H7.10721ZM13.3571 13.2H9.10714C8.94612 13.2 8.79169 13.1368 8.67783 13.0243C8.56397 12.9117 8.5 12.7591 8.5 12.6C8.5 12.4409 8.56397 12.2883 8.67783 12.1757C8.79169 12.0632 8.94612 12 9.10714 12H13.3571C13.5182 12 13.6726 12.0632 13.7865 12.1757C13.9003 12.2883 13.9643 12.4409 13.9643 12.6C13.9643 12.7591 13.9003 12.9117 13.7865 13.0243C13.6726 13.1368 13.5182 13.2 13.3571 13.2ZM13.3571 7.8H9.10714C8.94612 7.8 8.79169 7.73679 8.67783 7.62426C8.56397 7.51174 8.5 7.35913 8.5 7.2C8.5 7.04087 8.56397 6.88826 8.67783 6.77574C8.79169 6.66321 8.94612 6.6 9.10714 6.6H13.3571C13.5182 6.6 13.6726 6.66321 13.7865 6.77574C13.9003 6.88826 13.9643 7.04087 13.9643 7.2C13.9643 7.35913 13.9003 7.51174 13.7865 7.62426C13.6726 7.73679 13.5182 7.8 13.3571 7.8Z"/>
</svg>
