<svg width="23" height="20" viewBox="0 0 23 20" fill="currentColor" xmlns="http://www.w3.org/2000/svg">
<path d="M2.22299 0.242219C1.90468 -0.0807397 1.38102 -0.0807397 1.06272 0.242219C0.744414 0.565178 0.744414 1.0965 1.06272 1.41946L19.1341 19.7552C19.2933 19.9167 19.5038 20 19.7143 20C19.9248 20 20.1353 19.9167 20.2944 19.7552C20.6127 19.4322 20.6127 18.9009 20.2944 18.5779L2.22299 0.242219Z" fill="currentColor"/>
<path d="M8.00894 3.76872L10.7967 6.59721C10.9558 6.75869 11.2176 6.75869 11.3768 6.59721C11.4538 6.51908 11.4949 6.4149 11.4949 6.3003V2.94049C11.5 2.47168 11.2484 2.03412 10.8429 1.81013C10.427 1.58094 9.91363 1.6174 9.53371 1.90389L9.49778 1.92994L8.03461 3.14364C7.86005 3.28949 7.83438 3.54994 7.97813 3.73226C7.9884 3.74788 7.99867 3.7583 8.00894 3.76872Z" fill="currentColor"/>
<path d="M3.32165 6.07631C3.16763 5.92004 2.95714 5.83149 2.74152 5.83149H1.23214C0.54933 5.83149 0 6.38885 0 7.08165V12.9157C0 13.6085 0.54933 14.1659 1.23214 14.1659H4.81563L9.53884 18.0883C9.92389 18.38 10.4475 18.4165 10.8685 18.1768C11.2638 17.9476 11.5103 17.5153 11.5051 17.0569V14.7181C11.5051 14.4993 11.4179 14.2857 11.2638 14.1294L3.32165 6.07631Z" fill="currentColor"/>
<path d="M14.0567 7.04519C14.5496 8.02448 14.7909 8.98815 14.7909 9.9987C14.7909 10.1393 14.7857 10.28 14.7754 10.4206C14.7652 10.5404 14.8114 10.6602 14.8935 10.7488L15.6328 11.4989C15.792 11.6604 16.0538 11.6604 16.2129 11.4989C16.2746 11.4364 16.3156 11.3582 16.3259 11.2749C16.3978 10.853 16.4337 10.431 16.4337 10.0039C16.4337 8.72249 16.1359 7.50879 15.5199 6.28988C15.3145 5.87837 14.8217 5.71168 14.4161 5.92004C14.0105 6.1284 13.8462 6.62847 14.0516 7.03998C14.0516 7.03998 14.0516 7.03998 14.0567 7.04519Z" fill="currentColor"/>
<path d="M18.0714 9.9987C18.0714 11.2384 17.902 12.2334 17.5888 13.1554C17.5375 13.3064 17.5734 13.4731 17.6864 13.5877L18.3281 14.2388C18.4873 14.4003 18.7491 14.4003 18.9083 14.2388C18.9493 14.1972 18.9801 14.1503 19.0007 14.093C19.4576 12.9053 19.7143 11.6291 19.7143 9.9987C19.7143 7.33168 19.0417 5.62834 17.9585 3.74268C17.7223 3.34679 17.2192 3.22177 16.829 3.45618C16.4491 3.69059 16.3156 4.18544 16.5364 4.58133C17.5118 6.26905 18.0714 7.69632 18.0714 9.9987Z" fill="currentColor"/>
<path d="M20.4074 1.2163C20.1609 0.825628 19.6527 0.716239 19.2728 0.961062C18.8929 1.20589 18.7799 1.72679 19.0212 2.11225C20.4228 4.34171 21.3571 6.5347 21.3571 9.9987C21.3571 12.4053 20.9259 14.1815 20.2071 15.7547C20.1353 15.9109 20.1661 16.0984 20.2893 16.2235L20.9002 16.8433C21.0594 17.0048 21.3212 17.01 21.4804 16.8485C21.5163 16.8121 21.542 16.7756 21.5625 16.7287C22.5688 14.6243 23 12.5459 23 9.99349C23 6.13361 21.963 3.69058 20.4074 1.2163Z" fill="currentColor"/>
</svg>
