<svg width="22" height="18" viewBox="0 0 22 18" fill="currentColor" xmlns="http://www.w3.org/2000/svg">
<path fill-rule="evenodd" clip-rule="evenodd" d="M14.9999 14.5163V1.74196C14.9999 0.781341 14.1613 0 13.1308 0H3.84303C2.81252 0 1.97392 0.781341 1.97392 1.74196H11.1606C12.1893 1.74196 13.0261 2.56794 13.0261 3.58372V16.2583C14.2852 16.2583 14.9999 15.3931 14.9999 14.5163ZM0.689334 2.90255H11.1606C11.5404 2.90255 11.8496 3.20775 11.8496 3.583V17.3191C11.8496 17.6943 11.5404 17.9995 11.1606 17.9995H0.689334C0.309189 17.9995 0 17.6943 0 17.3191V3.583C0 3.20775 0.309189 2.90255 0.689334 2.90255ZM3.23528 12.4833H8.82348C9.14848 12.4833 9.41171 12.2235 9.41171 11.9027C9.41171 11.5819 9.14848 11.322 8.82348 11.322H3.23528C2.91028 11.322 2.64704 11.5819 2.64704 11.9027C2.64704 12.2235 2.91028 12.4833 3.23528 12.4833ZM3.23528 10.1607H8.82348C9.14848 10.1607 9.41171 9.90086 9.41171 9.58005C9.41171 9.25924 9.14848 8.9994 8.82348 8.9994H3.23528C2.91028 8.9994 2.64704 9.25924 2.64704 9.58005C2.64704 9.90086 2.91028 10.1607 3.23528 10.1607ZM3.23528 7.83809H8.82348C9.14848 7.83809 9.41171 7.57825 9.41171 7.25744C9.41171 6.93663 9.14848 6.67679 8.82348 6.67679H3.23528C2.91028 6.67679 2.64704 6.93663 2.64704 7.25744C2.64704 7.57825 2.91028 7.83809 3.23528 7.83809Z" fill="currentColor"/>
</svg>
