<svg width="18" height="18" viewBox="0 0 18 18" fill="none" xmlns="http://www.w3.org/2000/svg">
<path d="M18 16.875C18 17.4963 17.4963 18 16.875 18H1.125C0.503684 18 0 17.4963 0 16.875C0 16.2537 0.503684 15.75 1.125 15.75H16.875C17.4963 15.75 18 16.2536 18 16.875ZM5.01409 6.23594C5.30199 6.23594 5.58992 6.12611 5.80957 5.90642L7.875 3.84099V12.5157C7.875 13.137 8.37869 13.6407 9 13.6407C9.62132 13.6407 10.125 13.137 10.125 12.5157V3.84099L12.1904 5.90642C12.6298 6.34577 13.3421 6.34577 13.7814 5.90642C14.2208 5.46707 14.2208 4.75477 13.7814 4.31542L9.79549 0.329511C9.35614 -0.109837 8.64384 -0.109837 8.20449 0.329511L4.21858 4.31542C3.77923 4.75477 3.77923 5.46707 4.21858 5.90642C4.43827 6.12611 4.72616 6.23594 5.01409 6.23594Z" fill="#889EA6"/>
</svg>
