<svg width="22" height="13" viewBox="0 0 22 13" fill="currentColor" xmlns="http://www.w3.org/2000/svg">
<path fill-rule="evenodd" clip-rule="evenodd" d="M2.40704 0H12.4444C13.7683 0 14.8514 1.06518 14.8514 2.42086V10.5791C14.8514 11.9106 13.7683 13 12.4444 13H2.40704C1.08317 13 0 11.9106 0 10.5791V2.42086C0 1.08939 1.08317 0 2.40704 0ZM19.8096 1.50093C19.9299 1.42831 20.0744 1.35568 20.2188 1.33147C21.1575 1.1136 22 1.83985 22 2.73557V10.216C22 10.4823 21.9278 10.7244 21.8074 10.9423C21.3982 11.6443 20.5317 11.8864 19.8337 11.4749L16.0546 9.29609V3.6797L19.8096 1.50093Z"/>
</svg>
