<svg width="36" height="24" viewBox="0 0 36 24" fill="none" xmlns="http://www.w3.org/2000/svg">
<path d="M36 21.9427C36 23.0788 35.0473 23.9999 33.872 23.9999H2.12801C0.952734 24 0 23.0788 0 21.9427V2.05717C0 0.92099 0.952734 0 2.12801 0H33.872C35.0473 0 36 0.921058 36 2.05717V21.9427Z" fill="white"/>
<path d="M7.99017 12.1384L7.14487 8.2185C7.00038 7.67794 6.57991 7.51712 6.05454 7.49585H2.17905L2.14453 7.67495C5.16298 8.38231 7.1602 10.0888 7.99017 12.1384Z" fill="#DCAA50"/>
<path d="M16.9703 7.57471H14.4662L12.9023 16.4466H15.4022L16.9703 7.57471Z" fill="#305B94"/>
<path d="M9.51626 16.4375L13.4545 7.58057H10.8043L8.35441 13.6318L8.09292 12.7181C7.61269 11.619 6.24019 10.037 4.62891 9.0411L6.86836 16.4405L9.51626 16.4375Z" fill="#305B94"/>
<path d="M24.1122 13.5458C24.1215 12.5386 23.4525 11.7703 22.0108 11.1358C21.1346 10.7259 20.6006 10.4526 20.607 10.0367C20.607 9.66924 21.0592 9.27454 22.0391 9.27454C22.859 9.26237 23.4494 9.43542 23.9111 9.61459L24.1374 9.71484L24.4767 7.79287C23.9804 7.61363 23.2045 7.42236 22.2341 7.42236C19.7621 7.42236 18.0221 8.62482 18.0063 10.3494C17.9906 11.6247 19.2503 12.3352 20.1988 12.7602C21.1724 13.1935 21.499 13.4707 21.4928 13.8594C21.4865 14.4536 20.7169 14.7246 19.9977 14.7246C18.9957 14.7246 18.4648 14.5911 17.6416 14.2595L17.3216 14.1174L16.9702 16.1055C17.554 16.3522 18.6344 16.5678 19.7559 16.5767C22.3846 16.5767 24.0934 15.3896 24.1122 13.5458Z" fill="#305B94"/>
<path d="M27.086 15.1164C27.3718 15.1164 29.9254 15.1195 30.2899 15.1195C30.3652 15.4284 30.5945 16.4493 30.5945 16.4493H32.9156L30.8897 7.5835H28.9581C28.3581 7.5835 27.9122 7.74139 27.6483 8.31818L23.9326 16.4493H26.5617C26.5615 16.4493 26.9886 15.3564 27.086 15.1164ZM28.8008 10.8201C28.7885 10.8443 29.0083 10.307 29.1339 9.97297L29.3034 10.738C29.3034 10.738 29.781 12.8575 29.8814 13.3008H27.8052C28.0126 12.7907 28.8008 10.8201 28.8008 10.8201Z" fill="#305B94"/>
<path d="M33.872 0H2.12801C0.952734 0 0 0.92099 0 2.05717V4.19223H36V2.05717C36 0.92099 35.0473 0 33.872 0Z" fill="#305B94"/>
<path d="M33.872 24.0001H2.12801C0.952734 24.0001 0 23.079 0 21.9429V19.8079H36V21.9429C36 23.079 35.0473 24.0001 33.872 24.0001Z" fill="#DCAA50"/>
</svg>
