<svg width="20" height="18" viewBox="0 0 96 66" fill="none" xmlns="http://www.w3.org/2000/svg">
<path d="M46.7 37C53.5 37 59 31.5 59 24.7C59 17.9 53.5 12.4 46.7 12.4C39.9 12.4 34.4 17.9 34.4 24.7C34.4 31.5 39.9 37 46.7 37ZM42.6 20.5C42.6 19.2 44 18.4 45.1 19.1L51.8 23.3C52.8 23.9 52.8 25.4 51.8 26.1L45.1 30.3C44 30.9 42.6 30.2 42.6 28.9V20.5Z" fill="currentColor"/>
<path d="M65.2 15.1H82.5C83.6 15.1 84.5 14.2 84.5 13.1C84.5 12 83.6 11.1 82.5 11.1H65.2C64.1 11.1 63.2 12 63.2 13.1C63.1 14.1 64 15.1 65.2 15.1Z" fill="currentColor"/>
<path d="M65.2 22.9H82.5C83.6 22.9 84.5 22 84.5 20.9C84.5 19.8 83.6 18.9 82.5 18.9H65.2C64.1 18.9 63.2 19.8 63.2 20.9C63.2 22 64 22.9 65.2 22.9Z" fill="currentColor"/>
<path d="M65.2 30.6H82.5C83.6 30.6 84.5 29.7 84.5 28.6C84.5 27.5 83.6 26.6 82.5 26.6H65.2C64.1 26.6 63.2 27.5 63.2 28.6C63.1 29.7 64 30.6 65.2 30.6Z" fill="currentColor"/>
<path d="M65.2 38.4H82.5C83.6 38.4 84.5 37.5 84.5 36.4C84.5 35.3 83.6 34.4 82.5 34.4H65.2C64.1 34.4 63.2 35.3 63.2 36.4C63.2 37.5 64 38.4 65.2 38.4Z" fill="currentColor"/>
<path d="M90.9 0.2H28C25.4 0.2 23.4 2.3 23.4 4.8V15.8C25.4 16.5 27.3 17.6 28.8 19V8.6C28.8 7 30.1 5.7 31.7 5.7H87.1C88.7 5.8 90 7 90 8.6V40.9C90 42.5 88.7 43.8 87.1 43.8H35.7C37.9 46.6 39.5 49.9 40.2 53.6H52.8L51.9 59.5C51.8 60.3 51.1 60.9 50.3 60.9H46.8C45.9 60.9 45.2 61.6 45.2 62.5V64.1C45.2 65 45.9 65.7 46.8 65.7H72C72.9 65.7 73.6 65 73.6 64.1V62.5C73.6 61.6 72.9 60.9 72 60.9H68.5C67.7 60.9 67 60.3 66.9 59.5L66 53.5H90.8C93.4 53.5 95.4 51.4 95.4 48.9V4.8C95.5 2.3 93.4 0.2 90.9 0.2ZM59.4 50.9C58.2 50.9 57.1 49.9 57.1 48.6C57.1 47.4 58.1 46.4 59.4 46.4C60.7 46.4 61.7 47.4 61.7 48.6C61.7 49.9 60.7 50.9 59.4 50.9Z" fill="currentColor"/>
<path d="M28.3 43C25.6 45.2 22.1 46.6 18.3 46.6C14.5 46.6 11 45.2 8.29998 43C3.69998 46.1 0.599976 51.4 0.599976 57.4V62C0.599976 64 2.19998 65.5 4.19998 65.5H32.6C34.6 65.5 36.2 63.9 36.2 62V57.4C36 51.4 32.9 46.2 28.3 43Z" fill="currentColor"/>
<path d="M18.2 42C24.4 42 29.4 37 29.4 30.8C29.4 24.6 24.4 19.6 18.2 19.6C12 19.6 7 24.6 7 30.9C7 37.2 12 42 18.2 42Z" fill="currentColor"/>
</svg>
