<svg width="18" height="12" fill="currentColor" viewBox="0 0 18 12" xmlns="http://www.w3.org/2000/svg">
<path d="M17.6291 1.87771C17.4217 1.14347 16.8137 0.564674 16.0427 0.366965C14.6341 0 8.9998 0 8.9998 0C8.9998 0 3.36567 0 1.95711 0.353052C1.20092 0.550552 0.578102 1.14357 0.370679 1.87771C0 3.21879 0 6 0 6C0 6 0 8.79523 0.370679 10.1223C0.578321 10.8564 1.18609 11.4352 1.95722 11.6329C3.3805 12 9.00002 12 9.00002 12C9.00002 12 14.6341 12 16.0427 11.6469C16.8138 11.4493 17.4217 10.8705 17.6294 10.1364C17.9999 8.79523 17.9999 6.01412 17.9999 6.01412C17.9999 6.01412 18.0148 3.21879 17.6291 1.87771ZM7.20595 8.56938V3.43062L11.8912 6L7.20595 8.56938Z"/>
</svg>
